<mxfile host="app.diagrams.net" modified="2024-06-03T13:39:19.033Z" agent="Mozilla/5.0 (Windows NT 10.0; Win64; x64) AppleWebKit/537.36 (KHTML, like Gecko) Chrome/125.0.0.0 Safari/537.36" version="24.4.13" etag="BX4rrwPXIv_6uNLKaBQy" type="github">
  <diagram name="Page-1" id="h18sWnZ3htP5j9dw75dd">
    <mxGraphModel>
      <root>
        <mxCell id="0" />
        <mxCell id="1" parent="0" />
      </root>
    </mxGraphModel>
  </diagram>
</mxfile>
